<?xml version="1.0" encoding="UTF-8" standalone="no"?>
<!-- Created with Inkscape (http://www.inkscape.org/) -->

<svg
   xmlns:dc="http://purl.org/dc/elements/1.1/"
   xmlns:cc="http://creativecommons.org/ns#"
   xmlns:rdf="http://www.w3.org/1999/02/22-rdf-syntax-ns#"
   xmlns:svg="http://www.w3.org/2000/svg"
   xmlns="http://www.w3.org/2000/svg"
   xmlns:sodipodi="http://sodipodi.sourceforge.net/DTD/sodipodi-0.dtd"
   xmlns:inkscape="http://www.inkscape.org/namespaces/inkscape"
   version="1.1"
   id="svg2"
   xml:space="preserve"
   width="370.68936"
   height="236.28517"
   viewBox="0 0 370.68936 236.28517"
   sodipodi:docname="model.svg"
   inkscape:version="0.92.1 r"><metadata
     id="metadata8"><rdf:RDF><cc:Work
         rdf:about=""><dc:format>image/svg+xml</dc:format><dc:type
           rdf:resource="http://purl.org/dc/dcmitype/StillImage" /><dc:title></dc:title></cc:Work></rdf:RDF></metadata><defs
     id="defs6" /><sodipodi:namedview
     pagecolor="#ffffff"
     bordercolor="#666666"
     borderopacity="1"
     objecttolerance="10"
     gridtolerance="10"
     guidetolerance="10"
     inkscape:pageopacity="0"
     inkscape:pageshadow="2"
     inkscape:window-width="1920"
     inkscape:window-height="1152"
     id="namedview4"
     showgrid="false"
     fit-margin-top="0"
     fit-margin-left="0"
     fit-margin-right="0"
     fit-margin-bottom="0"
     inkscape:zoom="2.3916847"
     inkscape:cx="143.93212"
     inkscape:cy="83.810401"
     inkscape:window-x="0"
     inkscape:window-y="18"
     inkscape:window-maximized="0"
     inkscape:current-layer="g10" /><g
     id="g10"
     inkscape:groupmode="layer"
     inkscape:label="model"
     transform="matrix(1.3333333,0,0,-1.3333333,-553.92245,762.07605)"><text
       transform="matrix(0.86631168,-0.50010815,-0.49995716,-0.86605014,447.00568,521.00998)"
       style="font-variant:normal;font-weight:normal;font-stretch:normal;font-size:13.22833347px;font-family:'Century Gothic';-inkscape-font-specification:CenturyGothic;writing-mode:lr-tb;fill:#000000;fill-opacity:1;fill-rule:nonzero;stroke:none"
       id="text14"><tspan
         x="0 7.3307099 10.996065 18.326775 25.657484"
         y="0"
         sodipodi:role="line"
         id="tspan12">4.56 </tspan></text>
<text
       transform="matrix(0.86631168,0.50010815,0.49995716,-0.86605014,519.20078,412.03262)"
       style="font-variant:normal;font-weight:normal;font-stretch:normal;font-size:13.22833347px;font-family:'Century Gothic';-inkscape-font-specification:CenturyGothic;writing-mode:lr-tb;fill:#000000;fill-opacity:1;fill-rule:nonzero;stroke:none"
       id="text18"><tspan
         x="0 7.3307099 10.996065 18.326775 25.657484"
         y="0"
         sodipodi:role="line"
         id="tspan16">4.68 </tspan></text>
<text
       transform="matrix(0.86631168,-0.50010815,-0.49995716,-0.86605014,422.72878,504.39938)"
       style="font-variant:normal;font-weight:normal;font-stretch:normal;font-size:13.22833347px;font-family:'Century Gothic';-inkscape-font-specification:CenturyGothic;writing-mode:lr-tb;fill:#000000;fill-opacity:1;fill-rule:nonzero;stroke:none"
       id="text22"><tspan
         x="0 7.3307099 10.996065 18.326775 25.657484"
         y="0"
         sodipodi:role="line"
         id="tspan20">7.11 </tspan></text>
<text
       transform="matrix(0.86631082,0.50010765,0.49995716,-0.86605014,598.37048,460.69582)"
       style="font-variant:normal;font-weight:normal;font-stretch:normal;font-size:13.22833347px;font-family:'Century Gothic';-inkscape-font-specification:CenturyGothic;writing-mode:lr-tb;fill:#000000;fill-opacity:1;fill-rule:nonzero;stroke:none"
       id="text26"><tspan
         x="0 7.3307028"
         y="0"
         sodipodi:role="line"
         id="tspan24">2 </tspan></text>
<g
       id="g28"
       transform="translate(455.9,417.8)"><path
         d="M 0,0 V 55 M 0,0 38.2,-22.1 M 0,0 -40.2,-23.2"
         style="fill:none;stroke:#000000;stroke-width:0.50999999;stroke-linecap:round;stroke-linejoin:round;stroke-miterlimit:10;stroke-dasharray:none;stroke-opacity:1"
         id="path30"
         inkscape:connector-curvature="0" /></g><g
       id="g32"
       transform="translate(500.2,424.6)"><path
         d="M 0,0 25.3,-14.6 M 18.8,10.8 44,-3.8 m -20.7,-9.6 -12.8,-7.4 m 12.8,7.4 18.7,10.8 m 0,0 12.8,7.3 m -31.5,-18.1 -6.6,-5.1 m 0,0 -1.1,1.9 m 0,0 7.7,3.2 m 18.7,10.8 6.6,5 m 0,0 1.1,-1.8 m 0,0 -7.7,-3.2"
         style="fill:none;stroke:#000000;stroke-width:0.50999999;stroke-linecap:round;stroke-linejoin:round;stroke-miterlimit:10;stroke-dasharray:none;stroke-opacity:1"
         id="path34"
         inkscape:connector-curvature="0" /></g><g
       id="g36"
       transform="translate(579.6,470.4)"><path
         d="M 0,0 22.7,-13.1 M 8.1,4.6 30.7,-8.4 M 20.7,-11.9 8,-19.3 m 12.7,7.4 8,4.6 m 0,0 12.8,7.4 m -20.8,-12 -6.6,-5.1 m 0,0 -1.1,1.9 m 0,0 7.7,3.2 m 8,4.6 6.6,5.1 m 0,0 1.1,-1.9 m 0,0 -7.7,-3.2"
         style="fill:none;stroke:#000000;stroke-width:0.50999999;stroke-linecap:round;stroke-linejoin:round;stroke-miterlimit:10;stroke-dasharray:none;stroke-opacity:1"
         id="path38"
         inkscape:connector-curvature="0" /></g><g
       id="g40"
       transform="translate(474.8,458)"><path
         d="M 0,0 V 45.9 M 18.3,-10.5 V 35.3 M 0,43.6 -24.6,57.8 M 0,43.6 18.3,33 M 0,43.6 7.7,40.4 m 0,0 -1.1,-1.9 m 0,0 L 0,43.6 M 18.3,33 10.6,36.2 m 0,0 1.1,1.9 m 0,0 6.6,-5.1 m -51.5,-46.2 v 47.6 m 28.6,-64.1 v 47.6 m -28.6,14.2 -15.7,9 m 15.7,-9 28.6,-16.5 m -28.6,16.5 7.7,-3.2 m 0,0 -1.1,-1.9 m 0,0 -6.6,5.1 m 28.6,-16.5 -7.7,3.2 m 0,0 1.1,1.9 m 0,0 6.6,-5.1"
         style="fill:none;stroke:#000000;stroke-width:0.50999999;stroke-linecap:round;stroke-linejoin:round;stroke-miterlimit:10;stroke-dasharray:none;stroke-opacity:1"
         id="path42"
         inkscape:connector-curvature="0" /></g><g
       id="g44"
       transform="translate(470.2,426)"><path
         d="M 0,0 V -16.5 M 0,0 20,11.6 m 0,0 V -4.9 M 0,-16.5 20,-4.9 m 74.5,83.7 -8.1,-4.6 m 0.5,8.9 7.6,-4.3 m 15,17.3 -22.6,-13 m 30.1,8.7 -7.5,4.3 m 15.5,0.4 -8,-4.7 m 0.5,9 7.5,-4.3 m 14.6,17 -22.1,-12.7 m 29.1,8.6 -7,4.1 m 15.1,0.6 -8.1,-4.7 m 1,8.7 7.1,-4 m 11.7,14.9 -18.8,-10.9 m 23.9,7.9 -5.1,3 m 13.1,1.6 -8,-4.6 m 2.9,7.6 5.1,-3 m 14.9,14.6 -20,-11.6 m 48.5,-4.9 -28.5,16.5 m 8.5,-28.1 20,11.6 m -25.1,-8.6 5.1,-3 m -13.2,-1.6 8.1,4.6 m -2.9,-7.6 -5.2,3 m -13.6,-13.8 18.8,10.8 m -25.9,-6.7 7.1,-4.1 m -15.1,-0.6 8,4.7 M 168.1,97 161,101.1 M 146,84.3 168.1,97 m -29.5,-8.4 7.4,-4.3 m -15.4,-0.3 8,4.6 M 138,79.7 130.6,84 m -15.2,-17.3 22.6,13 m -30.1,-8.7 7.5,-4.3 m -15.5,-0.3 8,4.6 m -0.5,-9 -7.5,4.4 M 84.9,49 107.4,62 m -30,-8.7 7.5,-4.3 m -15.5,-0.3 8,4.6 m -0.6,-8.9 -7.4,4.3 m -14.6,-17.1 22,12.8 m -29.1,-8.7 7.1,-4.1 m -15.1,-0.5 8,4.6 M 46.8,27 39.7,31.1 M 28,16.2 46.8,27 M 22.9,19.1 28,16.2 m -13.1,-1.7 8,4.6 M 20,11.6 14.9,14.5 M -28.6,16.4 0,0 M -8.5,28 -28.6,16.4 m 25.2,8.7 -5.1,2.9 m 13.1,1.7 -8,-4.6 m 2.9,7.5 5.1,-2.9 M 18.3,43.5 -0.5,32.6 m 25.8,6.8 -7,4.1 m 15,0.5 -8,-4.6 m 1,8.7 7,-4.1 m 15,16.8 -22,-12.7 m 29.5,8.4 -7.5,4.3 m 15.5,0.4 -8,-4.7 m 0.6,9 7.4,-4.3 m 15.1,17.3 -22.5,-13 m 30,8.7 -7.5,4.3 M -28.6,16.4 V 0 m 0,0 L 0,-16.5 M 22.9,19.1 V 2.7 M 20,1 22.9,2.7 M 28,16.2 V -0.3 m -5.1,3 5.1,-3 M 46.8,27 V 10.6 M 28,-0.3 46.8,10.6 m -47.3,22 v -5.9 m 48.2,9 V 19.3 m -0.9,-0.6 0.9,0.6 m 7.1,12.3 V 15.2 m -7.1,4.1 7.1,-4.1 m 22,29.2 V 27.9 m -22,-12.7 22,12.7 M 26.3,48.1 V 40 M 77.4,53.3 V 36.8 m -0.6,-0.3 0.6,0.3 M 84.9,49 V 32.5 m -7.5,4.3 7.5,-4.3 M 107.4,62 V 45.6 M 84.9,32.5 107.4,45.6 m -51,19.9 V 56.8 M 107.9,71 V 54.5 m -0.5,-0.2 0.5,0.2 m 7.5,12.2 V 50.2 m -7.5,4.3 7.5,-4.3 M 138,79.7 V 63.2 m -22.6,-13 22.6,13 M 86.9,83.1 v -8.7 m 51.7,14.2 V 72.2 m -0.6,-0.4 0.6,0.4 M 146,84.3 V 67.9 m -7.4,4.3 7.4,-4.3 M 168.1,97 V 80.6 M 146,67.9 168.1,80.6 m -50.6,20.2 V 92.2 M 169,105.8 V 89.3 m -0.9,-0.6 0.9,0.6 m 7.1,12.4 V 85.2 m 18.8,27.3 V 96 M 176.1,85.2 194.9,96 m -25.9,-6.7 7.1,-4.1 m -28.5,32.9 V 110 m 50.2,10.1 v -16.5 m -2.9,-1.6 2.9,1.6 m 5.1,13.5 v -16.4 m 20,28 v -16.5 m -20,-11.5 20,11.5 m -25.1,-8.6 5.1,-2.9 m -28.5,32.9 v -5.9"
         style="fill:none;stroke:#000000;stroke-width:0.70899999;stroke-linecap:round;stroke-linejoin:round;stroke-miterlimit:10;stroke-dasharray:none;stroke-opacity:1"
         id="path46"
         inkscape:connector-curvature="0" /></g><g
       id="g48"
       transform="translate(490.2498,421.1489)"><path
         d="M 0,0 -5.115,2.953"
         style="fill:none;stroke:#000000;stroke-width:0.50999999;stroke-linecap:round;stroke-linejoin:round;stroke-miterlimit:10;stroke-dasharray:3.6, 1.8;stroke-dashoffset:1.54700005;stroke-opacity:1"
         id="path50"
         inkscape:connector-curvature="0" /></g><g
       id="g52"
       transform="translate(485.1346,440.5633)"><path
         d="M 0,0 V -16.461"
         style="fill:none;stroke:#000000;stroke-width:0.50999999;stroke-linecap:round;stroke-linejoin:round;stroke-miterlimit:10;stroke-dasharray:3.6, 1.8;stroke-dashoffset:1.66900003;stroke-opacity:1"
         id="path54"
         inkscape:connector-curvature="0" /></g><g
       id="g56"
       transform="translate(485.1346,424.1018)"><path
         d="M 0,0 5.115,2.953"
         style="fill:none;stroke:#000000;stroke-width:0.50999999;stroke-linecap:round;stroke-linejoin:round;stroke-miterlimit:10;stroke-dasharray:3.6, 1.8;stroke-dashoffset:1.54700005;stroke-opacity:1"
         id="path58"
         inkscape:connector-curvature="0" /></g><g
       id="g60"
       transform="translate(461.7392,437.6077)"><path
         d="M 0,0 -20.044,-11.571"
         style="fill:none;stroke:#000000;stroke-width:0.50999999;stroke-linecap:round;stroke-linejoin:round;stroke-miterlimit:10;stroke-dasharray:3.6, 1.8;stroke-dashoffset:1.028;stroke-opacity:1"
         id="path62"
         inkscape:connector-curvature="0" /></g><g
       id="g64"
       transform="translate(461.7392,454.0691)"><path
         d="M 0,0 V -16.461"
         style="fill:none;stroke:#000000;stroke-width:0.50999999;stroke-linecap:round;stroke-linejoin:round;stroke-miterlimit:10;stroke-dasharray:3.6, 1.8;stroke-dashoffset:1.66900003;stroke-opacity:1"
         id="path66"
         inkscape:connector-curvature="0" /></g><g
       id="g68"
       transform="translate(466.8544,434.6547)"><path
         d="M 0,0 -5.115,2.953"
         style="fill:none;stroke:#000000;stroke-width:0.50999999;stroke-linecap:round;stroke-linejoin:round;stroke-miterlimit:10;stroke-dasharray:3.6, 1.8;stroke-dashoffset:1.54700005;stroke-opacity:1"
         id="path70"
         inkscape:connector-curvature="0" /></g><g
       id="g72"
       transform="translate(466.8544,451.1162)"><path
         d="M 0,0 V -16.461"
         style="fill:none;stroke:#000000;stroke-width:0.50999999;stroke-linecap:round;stroke-linejoin:round;stroke-miterlimit:10;stroke-dasharray:3.6, 1.8;stroke-dashoffset:1.66900003;stroke-opacity:1"
         id="path74"
         inkscape:connector-curvature="0" /></g><g
       id="g76"
       transform="translate(474.872,439.2832)"><path
         d="M 0,0 -8.018,-4.628"
         style="fill:none;stroke:#000000;stroke-width:0.50999999;stroke-linecap:round;stroke-linejoin:round;stroke-miterlimit:10;stroke-dasharray:3.6, 1.8;stroke-dashoffset:-0.12899999;stroke-opacity:1"
         id="path78"
         inkscape:connector-curvature="0" /></g><g
       id="g80"
       transform="translate(517.0285,436.6079)"><path
         d="M 0,0 -7.059,4.075"
         style="fill:none;stroke:#000000;stroke-width:0.50999999;stroke-linecap:round;stroke-linejoin:round;stroke-miterlimit:10;stroke-dasharray:3.6, 1.8;stroke-dashoffset:0.42399999;stroke-opacity:1"
         id="path82"
         inkscape:connector-curvature="0" /></g><g
       id="g84"
       transform="translate(469.7568,452.7917)"><path
         d="M 0,0 V -10.556"
         style="fill:none;stroke:#000000;stroke-width:0.50999999;stroke-linecap:round;stroke-linejoin:round;stroke-miterlimit:10;stroke-dasharray:3.6, 1.8;stroke-dashoffset:1.92200005;stroke-opacity:1"
         id="path86"
         inkscape:connector-curvature="0" /></g><g
       id="g88"
       transform="translate(474.872,455.7447)"><path
         d="M 0,0 V -16.461"
         style="fill:none;stroke:#000000;stroke-width:0.50999999;stroke-linecap:round;stroke-linejoin:round;stroke-miterlimit:10;stroke-dasharray:3.6, 1.8;stroke-dashoffset:1.66900003;stroke-opacity:1"
         id="path90"
         inkscape:connector-curvature="0" /></g><g
       id="g92"
       transform="translate(469.7568,442.2361)"><path
         d="M 0,0 5.115,-2.953"
         style="fill:none;stroke:#000000;stroke-width:0.50999999;stroke-linecap:round;stroke-linejoin:round;stroke-miterlimit:10;stroke-dasharray:3.6, 1.8;stroke-dashoffset:1.54700005;stroke-opacity:1"
         id="path94"
         inkscape:connector-curvature="0" /></g><g
       id="g96"
       transform="translate(509.969,457.1448)"><path
         d="M 0,0 V -16.462"
         style="fill:none;stroke:#000000;stroke-width:0.50999999;stroke-linecap:round;stroke-linejoin:round;stroke-miterlimit:10;stroke-dasharray:3.6, 1.8;stroke-dashoffset:1.66900003;stroke-opacity:1"
         id="path98"
         inkscape:connector-curvature="0" /></g><g
       id="g100"
       transform="translate(509.969,440.6833)"><path
         d="M 0,0 7.059,4.075"
         style="fill:none;stroke:#000000;stroke-width:0.50999999;stroke-linecap:round;stroke-linejoin:round;stroke-miterlimit:10;stroke-dasharray:3.6, 1.8;stroke-dashoffset:0.42399999;stroke-opacity:1"
         id="path102"
         inkscape:connector-curvature="0" /></g><g
       id="g104"
       transform="translate(488.518,453.0667)"><path
         d="M 0,0 -18.761,-10.831"
         style="fill:none;stroke:#000000;stroke-width:0.50999999;stroke-linecap:round;stroke-linejoin:round;stroke-miterlimit:10;stroke-dasharray:3.6, 1.8;stroke-dashoffset:1.76900005;stroke-opacity:1"
         id="path106"
         inkscape:connector-curvature="0" /></g><g
       id="g108"
       transform="translate(503.5951,453.6198)"><path
         d="M 0,0 -8.018,-4.628"
         style="fill:none;stroke:#000000;stroke-width:0.50999999;stroke-linecap:round;stroke-linejoin:round;stroke-miterlimit:10;stroke-dasharray:3.6, 1.8;stroke-dashoffset:-0.12899999;stroke-opacity:1"
         id="path110"
         inkscape:connector-curvature="0" /></g><g
       id="g112"
       transform="translate(495.5775,465.4528)"><path
         d="M 0,0 V -16.461"
         style="fill:none;stroke:#000000;stroke-width:0.50999999;stroke-linecap:round;stroke-linejoin:round;stroke-miterlimit:10;stroke-dasharray:3.6, 1.8;stroke-dashoffset:1.66900003;stroke-opacity:1"
         id="path114"
         inkscape:connector-curvature="0" /></g><g
       id="g116"
       transform="translate(488.518,469.5282)"><path
         d="M 0,0 V -16.461"
         style="fill:none;stroke:#000000;stroke-width:0.50999999;stroke-linecap:round;stroke-linejoin:round;stroke-miterlimit:10;stroke-dasharray:3.6, 1.8;stroke-dashoffset:1.66900003;stroke-opacity:1"
         id="path118"
         inkscape:connector-curvature="0" /></g><g
       id="g120"
       transform="translate(495.5775,448.9914)"><path
         d="M 0,0 -7.059,4.075"
         style="fill:none;stroke:#000000;stroke-width:0.50999999;stroke-linecap:round;stroke-linejoin:round;stroke-miterlimit:10;stroke-dasharray:3.6, 1.8;stroke-dashoffset:0.42399999;stroke-opacity:1"
         id="path122"
         inkscape:connector-curvature="0" /></g><g
       id="g124"
       transform="translate(496.5356,466.006)"><path
         d="M 0,0 V -8.311"
         style="fill:none;stroke:#000000;stroke-width:0.50999999;stroke-linecap:round;stroke-linejoin:round;stroke-miterlimit:10;stroke-dasharray:3.6, 1.8;stroke-dashoffset:0.345;stroke-opacity:1"
         id="path126"
         inkscape:connector-curvature="0" /></g><g
       id="g128"
       transform="translate(503.5951,470.0813)"><path
         d="M 0,0 V -16.461"
         style="fill:none;stroke:#000000;stroke-width:0.50999999;stroke-linecap:round;stroke-linejoin:round;stroke-miterlimit:10;stroke-dasharray:3.6, 1.8;stroke-dashoffset:1.66900003;stroke-opacity:1"
         id="path130"
         inkscape:connector-curvature="0" /></g><g
       id="g132"
       transform="translate(496.5356,457.6952)"><path
         d="M 0,0 7.06,-4.075"
         style="fill:none;stroke:#000000;stroke-width:0.50999999;stroke-linecap:round;stroke-linejoin:round;stroke-miterlimit:10;stroke-dasharray:3.6, 1.8;stroke-dashoffset:0.42399999;stroke-opacity:1"
         id="path134"
         inkscape:connector-curvature="0" /></g><g
       id="g136"
       transform="translate(547.0945,453.9646)"><path
         d="M 0,0 -7.46,4.307"
         style="fill:none;stroke:#000000;stroke-width:0.50999999;stroke-linecap:round;stroke-linejoin:round;stroke-miterlimit:10;stroke-dasharray:3.6, 1.8;stroke-dashoffset:0.193;stroke-opacity:1"
         id="path138"
         inkscape:connector-curvature="0" /></g><g
       id="g140"
       transform="translate(518.5839,470.4234)"><path
         d="M 0,0 -22.048,-12.728"
         style="fill:none;stroke:#000000;stroke-width:0.50999999;stroke-linecap:round;stroke-linejoin:round;stroke-miterlimit:10;stroke-dasharray:3.6, 1.8;stroke-dashoffset:-0.12899999;stroke-opacity:1"
         id="path142"
         inkscape:connector-curvature="0" /></g><g
       id="g144"
       transform="translate(539.6341,474.7329)"><path
         d="M 0,0 V -16.461"
         style="fill:none;stroke:#000000;stroke-width:0.50999999;stroke-linecap:round;stroke-linejoin:round;stroke-miterlimit:10;stroke-dasharray:3.6, 1.8;stroke-dashoffset:1.66900003;stroke-opacity:1"
         id="path146"
         inkscape:connector-curvature="0" /></g><g
       id="g148"
       transform="translate(539.6341,458.2714)"><path
         d="M 0,0 7.46,4.307"
         style="fill:none;stroke:#000000;stroke-width:0.50999999;stroke-linecap:round;stroke-linejoin:round;stroke-miterlimit:10;stroke-dasharray:3.6, 1.8;stroke-dashoffset:0.193;stroke-opacity:1"
         id="path150"
         inkscape:connector-curvature="0" /></g><g
       id="g152"
       transform="translate(534.0619,470.7451)"><path
         d="M 0,0 -8.018,-4.628"
         style="fill:none;stroke:#000000;stroke-width:0.50999999;stroke-linecap:round;stroke-linejoin:round;stroke-miterlimit:10;stroke-dasharray:3.6, 1.8;stroke-dashoffset:-0.12899999;stroke-opacity:1"
         id="path154"
         inkscape:connector-curvature="0" /></g><g
       id="g156"
       transform="translate(526.0443,482.5781)"><path
         d="M 0,0 V -16.461"
         style="fill:none;stroke:#000000;stroke-width:0.50999999;stroke-linecap:round;stroke-linejoin:round;stroke-miterlimit:10;stroke-dasharray:3.6, 1.8;stroke-dashoffset:1.66900003;stroke-opacity:1"
         id="path158"
         inkscape:connector-curvature="0" /></g><g
       id="g160"
       transform="translate(518.5839,486.8849)"><path
         d="M 0,0 V -16.461"
         style="fill:none;stroke:#000000;stroke-width:0.50999999;stroke-linecap:round;stroke-linejoin:round;stroke-miterlimit:10;stroke-dasharray:3.6, 1.8;stroke-dashoffset:1.66900003;stroke-opacity:1"
         id="path162"
         inkscape:connector-curvature="0" /></g><g
       id="g164"
       transform="translate(526.0443,466.1166)"><path
         d="M 0,0 -7.46,4.307"
         style="fill:none;stroke:#000000;stroke-width:0.50999999;stroke-linecap:round;stroke-linejoin:round;stroke-miterlimit:10;stroke-dasharray:3.6, 1.8;stroke-dashoffset:0.193;stroke-opacity:1"
         id="path166"
         inkscape:connector-curvature="0" /></g><g
       id="g168"
       transform="translate(526.6015,482.8998)"><path
         d="M 0,0 V -7.848"
         style="fill:none;stroke:#000000;stroke-width:0.50999999;stroke-linecap:round;stroke-linejoin:round;stroke-miterlimit:10;stroke-dasharray:3.6, 1.8;stroke-dashoffset:0.57599998;stroke-opacity:1"
         id="path170"
         inkscape:connector-curvature="0" /></g><g
       id="g172"
       transform="translate(534.0619,487.2066)"><path
         d="M 0,0 V -16.461"
         style="fill:none;stroke:#000000;stroke-width:0.50999999;stroke-linecap:round;stroke-linejoin:round;stroke-miterlimit:10;stroke-dasharray:3.6, 1.8;stroke-dashoffset:1.66900003;stroke-opacity:1"
         id="path174"
         inkscape:connector-curvature="0" /></g><g
       id="g176"
       transform="translate(526.6015,475.0519)"><path
         d="M 0,0 7.46,-4.307"
         style="fill:none;stroke:#000000;stroke-width:0.50999999;stroke-linecap:round;stroke-linejoin:round;stroke-miterlimit:10;stroke-dasharray:3.6, 1.8;stroke-dashoffset:0.193;stroke-opacity:1"
         id="path178"
         inkscape:connector-curvature="0" /></g><g
       id="g180"
       transform="translate(577.6816,471.6222)"><path
         d="M 0,0 -7.521,4.341"
         style="fill:none;stroke:#000000;stroke-width:0.50999999;stroke-linecap:round;stroke-linejoin:round;stroke-miterlimit:10;stroke-dasharray:3.6, 1.8;stroke-dashoffset:0.15800001;stroke-opacity:1"
         id="path182"
         inkscape:connector-curvature="0" /></g><g
       id="g184"
       transform="translate(549.171,488.081)"><path
         d="M 0,0 -22.57,-13.029"
         style="fill:none;stroke:#000000;stroke-width:0.50999999;stroke-linecap:round;stroke-linejoin:round;stroke-miterlimit:10;stroke-dasharray:3.6, 1.8;stroke-dashoffset:-0.43000001;stroke-opacity:1"
         id="path186"
         inkscape:connector-curvature="0" /></g><g
       id="g188"
       transform="translate(570.1611,492.4251)"><path
         d="M 0,0 V -16.461"
         style="fill:none;stroke:#000000;stroke-width:0.50999999;stroke-linecap:round;stroke-linejoin:round;stroke-miterlimit:10;stroke-dasharray:3.6, 1.8;stroke-dashoffset:1.66900003;stroke-opacity:1"
         id="path190"
         inkscape:connector-curvature="0" /></g><g
       id="g192"
       transform="translate(570.1611,475.9637)"><path
         d="M 0,0 7.521,4.342"
         style="fill:none;stroke:#000000;stroke-width:0.50999999;stroke-linecap:round;stroke-linejoin:round;stroke-miterlimit:10;stroke-dasharray:3.6, 1.8;stroke-dashoffset:0.15800001;stroke-opacity:1"
         id="path194"
         inkscape:connector-curvature="0" /></g><g
       id="g196"
       transform="translate(564.7091,488.368)"><path
         d="M 0,0 -8.018,-4.628"
         style="fill:none;stroke:#000000;stroke-width:0.50999999;stroke-linecap:round;stroke-linejoin:round;stroke-miterlimit:10;stroke-dasharray:3.6, 1.8;stroke-dashoffset:-0.12899999;stroke-opacity:1"
         id="path198"
         inkscape:connector-curvature="0" /></g><g
       id="g200"
       transform="translate(556.6915,500.2009)"><path
         d="M 0,0 V -16.461"
         style="fill:none;stroke:#000000;stroke-width:0.50999999;stroke-linecap:round;stroke-linejoin:round;stroke-miterlimit:10;stroke-dasharray:3.6, 1.8;stroke-dashoffset:1.66900003;stroke-opacity:1"
         id="path202"
         inkscape:connector-curvature="0" /></g><g
       id="g204"
       transform="translate(549.171,504.5424)"><path
         d="M 0,0 V -16.461"
         style="fill:none;stroke:#000000;stroke-width:0.50999999;stroke-linecap:round;stroke-linejoin:round;stroke-miterlimit:10;stroke-dasharray:3.6, 1.8;stroke-dashoffset:1.66900003;stroke-opacity:1"
         id="path206"
         inkscape:connector-curvature="0" /></g><g
       id="g208"
       transform="translate(556.6915,483.7395)"><path
         d="M 0,0 -7.521,4.342"
         style="fill:none;stroke:#000000;stroke-width:0.50999999;stroke-linecap:round;stroke-linejoin:round;stroke-miterlimit:10;stroke-dasharray:3.6, 1.8;stroke-dashoffset:0.15800001;stroke-opacity:1"
         id="path210"
         inkscape:connector-curvature="0" /></g><g
       id="g212"
       transform="translate(557.1886,500.4879)"><path
         d="M 0,0 V -7.779"
         style="fill:none;stroke:#000000;stroke-width:0.50999999;stroke-linecap:round;stroke-linejoin:round;stroke-miterlimit:10;stroke-dasharray:3.6, 1.8;stroke-dashoffset:0.611;stroke-opacity:1"
         id="path214"
         inkscape:connector-curvature="0" /></g><g
       id="g216"
       transform="translate(564.7091,504.8294)"><path
         d="M 0,0 V -16.461"
         style="fill:none;stroke:#000000;stroke-width:0.50999999;stroke-linecap:round;stroke-linejoin:round;stroke-miterlimit:10;stroke-dasharray:3.6, 1.8;stroke-dashoffset:1.66900003;stroke-opacity:1"
         id="path218"
         inkscape:connector-curvature="0" /></g><g
       id="g220"
       transform="translate(557.1886,492.7094)"><path
         d="M 0,0 7.521,-4.341"
         style="fill:none;stroke:#000000;stroke-width:0.50999999;stroke-linecap:round;stroke-linejoin:round;stroke-miterlimit:10;stroke-dasharray:3.6, 1.8;stroke-dashoffset:0.15800001;stroke-opacity:1"
         id="path222"
         inkscape:connector-curvature="0" /></g><g
       id="g224"
       transform="translate(608.2687,489.2798)"><path
         d="M 0,0 -7.46,4.307"
         style="fill:none;stroke:#000000;stroke-width:0.50999999;stroke-linecap:round;stroke-linejoin:round;stroke-miterlimit:10;stroke-dasharray:3.6, 1.8;stroke-dashoffset:0.193;stroke-opacity:1"
         id="path226"
         inkscape:connector-curvature="0" /></g><g
       id="g228"
       transform="translate(579.7581,505.7385)"><path
         d="M 0,0 -22.57,-13.029"
         style="fill:none;stroke:#000000;stroke-width:0.50999999;stroke-linecap:round;stroke-linejoin:round;stroke-miterlimit:10;stroke-dasharray:3.6, 1.8;stroke-dashoffset:-0.43000001;stroke-opacity:1"
         id="path230"
         inkscape:connector-curvature="0" /></g><g
       id="g232"
       transform="translate(600.8083,510.048)"><path
         d="M 0,0 V -16.461"
         style="fill:none;stroke:#000000;stroke-width:0.50999999;stroke-linecap:round;stroke-linejoin:round;stroke-miterlimit:10;stroke-dasharray:3.6, 1.8;stroke-dashoffset:1.66900003;stroke-opacity:1"
         id="path234"
         inkscape:connector-curvature="0" /></g><g
       id="g236"
       transform="translate(600.8083,493.5865)"><path
         d="M 0,0 7.46,4.307"
         style="fill:none;stroke:#000000;stroke-width:0.50999999;stroke-linecap:round;stroke-linejoin:round;stroke-miterlimit:10;stroke-dasharray:3.6, 1.8;stroke-dashoffset:0.193;stroke-opacity:1"
         id="path238"
         inkscape:connector-curvature="0" /></g><g
       id="g240"
       transform="translate(595.2361,506.0602)"><path
         d="M 0,0 -8.018,-4.628"
         style="fill:none;stroke:#000000;stroke-width:0.50999999;stroke-linecap:round;stroke-linejoin:round;stroke-miterlimit:10;stroke-dasharray:3.6, 1.8;stroke-dashoffset:-0.12899999;stroke-opacity:1"
         id="path242"
         inkscape:connector-curvature="0" /></g><g
       id="g244"
       transform="translate(587.2185,517.8932)"><path
         d="M 0,0 V -16.461"
         style="fill:none;stroke:#000000;stroke-width:0.50999999;stroke-linecap:round;stroke-linejoin:round;stroke-miterlimit:10;stroke-dasharray:3.6, 1.8;stroke-dashoffset:1.66900003;stroke-opacity:1"
         id="path246"
         inkscape:connector-curvature="0" /></g><g
       id="g248"
       transform="translate(579.7581,522.2)"><path
         d="M 0,0 V -16.461"
         style="fill:none;stroke:#000000;stroke-width:0.50999999;stroke-linecap:round;stroke-linejoin:round;stroke-miterlimit:10;stroke-dasharray:3.6, 1.8;stroke-dashoffset:1.66900003;stroke-opacity:1"
         id="path250"
         inkscape:connector-curvature="0" /></g><g
       id="g252"
       transform="translate(587.2185,501.4318)"><path
         d="M 0,0 -7.46,4.307"
         style="fill:none;stroke:#000000;stroke-width:0.50999999;stroke-linecap:round;stroke-linejoin:round;stroke-miterlimit:10;stroke-dasharray:3.6, 1.8;stroke-dashoffset:0.193;stroke-opacity:1"
         id="path254"
         inkscape:connector-curvature="0" /></g><g
       id="g256"
       transform="translate(587.7758,518.2149)"><path
         d="M 0,0 V -7.848"
         style="fill:none;stroke:#000000;stroke-width:0.50999999;stroke-linecap:round;stroke-linejoin:round;stroke-miterlimit:10;stroke-dasharray:3.6, 1.8;stroke-dashoffset:0.57599998;stroke-opacity:1"
         id="path258"
         inkscape:connector-curvature="0" /></g><g
       id="g260"
       transform="translate(595.2361,522.5217)"><path
         d="M 0,0 V -16.461"
         style="fill:none;stroke:#000000;stroke-width:0.50999999;stroke-linecap:round;stroke-linejoin:round;stroke-miterlimit:10;stroke-dasharray:3.6, 1.8;stroke-dashoffset:1.66900003;stroke-opacity:1"
         id="path262"
         inkscape:connector-curvature="0" /></g><g
       id="g264"
       transform="translate(587.7758,510.367)"><path
         d="M 0,0 7.46,-4.307"
         style="fill:none;stroke:#000000;stroke-width:0.50999999;stroke-linecap:round;stroke-linejoin:round;stroke-miterlimit:10;stroke-dasharray:3.6, 1.8;stroke-dashoffset:0.193;stroke-opacity:1"
         id="path266"
         inkscape:connector-curvature="0" /></g><g
       id="g268"
       transform="translate(638.3347,506.6365)"><path
         d="M 0,0 -7.06,4.075"
         style="fill:none;stroke:#000000;stroke-width:0.50999999;stroke-linecap:round;stroke-linejoin:round;stroke-miterlimit:10;stroke-dasharray:3.6, 1.8;stroke-dashoffset:0.42399999;stroke-opacity:1"
         id="path270"
         inkscape:connector-curvature="0" /></g><g
       id="g272"
       transform="translate(609.8241,523.0953)"><path
         d="M 0,0 -22.048,-12.728"
         style="fill:none;stroke:#000000;stroke-width:0.50999999;stroke-linecap:round;stroke-linejoin:round;stroke-miterlimit:10;stroke-dasharray:3.6, 1.8;stroke-dashoffset:-0.12899999;stroke-opacity:1"
         id="path274"
         inkscape:connector-curvature="0" /></g><g
       id="g276"
       transform="translate(631.2751,527.1733)"><path
         d="M 0,0 V -16.461"
         style="fill:none;stroke:#000000;stroke-width:0.50999999;stroke-linecap:round;stroke-linejoin:round;stroke-miterlimit:10;stroke-dasharray:3.6, 1.8;stroke-dashoffset:1.66900003;stroke-opacity:1"
         id="path278"
         inkscape:connector-curvature="0" /></g><g
       id="g280"
       transform="translate(631.2751,510.7118)"><path
         d="M 0,0 7.06,4.075"
         style="fill:none;stroke:#000000;stroke-width:0.50999999;stroke-linecap:round;stroke-linejoin:round;stroke-miterlimit:10;stroke-dasharray:3.6, 1.8;stroke-dashoffset:0.42399999;stroke-opacity:1"
         id="path282"
         inkscape:connector-curvature="0" /></g><g
       id="g284"
       transform="translate(624.9012,523.6483)"><path
         d="M 0,0 -8.018,-4.628"
         style="fill:none;stroke:#000000;stroke-width:0.50999999;stroke-linecap:round;stroke-linejoin:round;stroke-miterlimit:10;stroke-dasharray:3.6, 1.8;stroke-dashoffset:-0.12899999;stroke-opacity:1"
         id="path286"
         inkscape:connector-curvature="0" /></g><g
       id="g288"
       transform="translate(616.8835,535.4814)"><path
         d="M 0,0 V -16.461"
         style="fill:none;stroke:#000000;stroke-width:0.50999999;stroke-linecap:round;stroke-linejoin:round;stroke-miterlimit:10;stroke-dasharray:3.6, 1.8;stroke-dashoffset:1.66900003;stroke-opacity:1"
         id="path290"
         inkscape:connector-curvature="0" /></g><g
       id="g292"
       transform="translate(609.8241,539.5567)"><path
         d="M 0,0 V -16.461"
         style="fill:none;stroke:#000000;stroke-width:0.50999999;stroke-linecap:round;stroke-linejoin:round;stroke-miterlimit:10;stroke-dasharray:3.6, 1.8;stroke-dashoffset:1.66900003;stroke-opacity:1"
         id="path294"
         inkscape:connector-curvature="0" /></g><g
       id="g296"
       transform="translate(616.8835,519.0199)"><path
         d="M 0,0 -7.059,4.075"
         style="fill:none;stroke:#000000;stroke-width:0.50999999;stroke-linecap:round;stroke-linejoin:round;stroke-miterlimit:10;stroke-dasharray:3.6, 1.8;stroke-dashoffset:0.42399999;stroke-opacity:1"
         id="path298"
         inkscape:connector-curvature="0" /></g><g
       id="g300"
       transform="translate(665.1133,522.0955)"><path
         d="M 0,0 -5.115,2.953"
         style="fill:none;stroke:#000000;stroke-width:0.50999999;stroke-linecap:round;stroke-linejoin:round;stroke-miterlimit:10;stroke-dasharray:3.6, 1.8;stroke-dashoffset:1.54700005;stroke-opacity:1"
         id="path302"
         inkscape:connector-curvature="0" /></g><g
       id="g304"
       transform="translate(617.8417,536.0344)"><path
         d="M 0,0 V -8.311"
         style="fill:none;stroke:#000000;stroke-width:0.50999999;stroke-linecap:round;stroke-linejoin:round;stroke-miterlimit:10;stroke-dasharray:3.6, 1.8;stroke-dashoffset:0.345;stroke-opacity:1"
         id="path306"
         inkscape:connector-curvature="0" /></g><g
       id="g308"
       transform="translate(624.9012,540.1098)"><path
         d="M 0,0 V -16.461"
         style="fill:none;stroke:#000000;stroke-width:0.50999999;stroke-linecap:round;stroke-linejoin:round;stroke-miterlimit:10;stroke-dasharray:3.6, 1.8;stroke-dashoffset:1.66900003;stroke-opacity:1"
         id="path310"
         inkscape:connector-curvature="0" /></g><g
       id="g312"
       transform="translate(617.8417,527.7237)"><path
         d="M 0,0 7.06,-4.075"
         style="fill:none;stroke:#000000;stroke-width:0.50999999;stroke-linecap:round;stroke-linejoin:round;stroke-miterlimit:10;stroke-dasharray:3.6, 1.8;stroke-dashoffset:0.42399999;stroke-opacity:1"
         id="path314"
         inkscape:connector-curvature="0" /></g><g
       id="g316"
       transform="translate(659.9982,541.5099)"><path
         d="M 0,0 V -16.461"
         style="fill:none;stroke:#000000;stroke-width:0.50999999;stroke-linecap:round;stroke-linejoin:round;stroke-miterlimit:10;stroke-dasharray:3.6, 1.8;stroke-dashoffset:1.66900003;stroke-opacity:1"
         id="path318"
         inkscape:connector-curvature="0" /></g><g
       id="g320"
       transform="translate(659.9982,525.0485)"><path
         d="M 0,0 5.115,2.953"
         style="fill:none;stroke:#000000;stroke-width:0.50999999;stroke-linecap:round;stroke-linejoin:round;stroke-miterlimit:10;stroke-dasharray:3.6, 1.8;stroke-dashoffset:1.54700005;stroke-opacity:1"
         id="path322"
         inkscape:connector-curvature="0" /></g><g
       id="g324"
       transform="translate(636.6028,538.5543)"><path
         d="M 0,0 -18.761,-10.831"
         style="fill:none;stroke:#000000;stroke-width:0.50999999;stroke-linecap:round;stroke-linejoin:round;stroke-miterlimit:10;stroke-dasharray:3.6, 1.8;stroke-dashoffset:1.76900005;stroke-opacity:1"
         id="path326"
         inkscape:connector-curvature="0" /></g><g
       id="g328"
       transform="translate(649.7357,540.2298)"><path
         d="M 0,0 -8.018,-4.628"
         style="fill:none;stroke:#000000;stroke-width:0.50999999;stroke-linecap:round;stroke-linejoin:round;stroke-miterlimit:10;stroke-dasharray:3.6, 1.8;stroke-dashoffset:-0.12899999;stroke-opacity:1"
         id="path330"
         inkscape:connector-curvature="0" /></g><g
       id="g332"
       transform="translate(641.7181,552.0628)"><path
         d="M 0,0 V -16.461"
         style="fill:none;stroke:#000000;stroke-width:0.50999999;stroke-linecap:round;stroke-linejoin:round;stroke-miterlimit:10;stroke-dasharray:3.6, 1.8;stroke-dashoffset:1.66900003;stroke-opacity:1"
         id="path334"
         inkscape:connector-curvature="0" /></g><g
       id="g336"
       transform="translate(636.6028,555.0157)"><path
         d="M 0,0 V -16.461"
         style="fill:none;stroke:#000000;stroke-width:0.50999999;stroke-linecap:round;stroke-linejoin:round;stroke-miterlimit:10;stroke-dasharray:3.6, 1.8;stroke-dashoffset:1.66900003;stroke-opacity:1"
         id="path338"
         inkscape:connector-curvature="0" /></g><g
       id="g340"
       transform="translate(641.7181,535.6013)"><path
         d="M 0,0 -5.115,2.953"
         style="fill:none;stroke:#000000;stroke-width:0.50999999;stroke-linecap:round;stroke-linejoin:round;stroke-miterlimit:10;stroke-dasharray:3.6, 1.8;stroke-dashoffset:1.54700005;stroke-opacity:1"
         id="path342"
         inkscape:connector-curvature="0" /></g><g
       id="g344"
       transform="translate(693.1749,538.2951)"><path
         d="M 0,0 -28.51,16.459"
         style="fill:none;stroke:#000000;stroke-width:0.50999999;stroke-linecap:round;stroke-linejoin:round;stroke-miterlimit:10;stroke-dasharray:3.6, 1.8;stroke-dashoffset:1.53999996;stroke-opacity:1"
         id="path346"
         inkscape:connector-curvature="0" /></g><g
       id="g348"
       transform="translate(644.6204,553.7383)"><path
         d="M 0,0 V -10.556"
         style="fill:none;stroke:#000000;stroke-width:0.50999999;stroke-linecap:round;stroke-linejoin:round;stroke-miterlimit:10;stroke-dasharray:3.6, 1.8;stroke-dashoffset:1.92200005;stroke-opacity:1"
         id="path350"
         inkscape:connector-curvature="0" /></g><g
       id="g352"
       transform="translate(649.7357,556.6913)"><path
         d="M 0,0 V -16.461"
         style="fill:none;stroke:#000000;stroke-width:0.50999999;stroke-linecap:round;stroke-linejoin:round;stroke-miterlimit:10;stroke-dasharray:3.6, 1.8;stroke-dashoffset:1.66900003;stroke-opacity:1"
         id="path354"
         inkscape:connector-curvature="0" /></g><g
       id="g356"
       transform="translate(644.6204,543.1827)"><path
         d="M 0,0 5.115,-2.953"
         style="fill:none;stroke:#000000;stroke-width:0.50999999;stroke-linecap:round;stroke-linejoin:round;stroke-miterlimit:10;stroke-dasharray:3.6, 1.8;stroke-dashoffset:1.54700005;stroke-opacity:1"
         id="path358"
         inkscape:connector-curvature="0" /></g><g
       id="g360"
       transform="translate(664.6644,571.2153)"><path
         d="M 0,0 V -16.461"
         style="fill:none;stroke:#000000;stroke-width:0.50999999;stroke-linecap:round;stroke-linejoin:round;stroke-miterlimit:10;stroke-dasharray:3.6, 1.8;stroke-dashoffset:1.66900003;stroke-opacity:1"
         id="path362"
         inkscape:connector-curvature="0" /></g><g
       id="g364"
       transform="translate(664.6644,554.7539)"><path
         d="M 0,0 -20.044,-11.571"
         style="fill:none;stroke:#000000;stroke-width:0.50999999;stroke-linecap:round;stroke-linejoin:round;stroke-miterlimit:10;stroke-dasharray:3.6, 1.8;stroke-dashoffset:1.028;stroke-opacity:1"
         id="path366"
         inkscape:connector-curvature="0" /></g></g></svg>